<svg id="kity_svg_6" xmlns="http://www.w3.org/2000/svg" xmlns:xlink="http://www.w3.org/1999/xlink" version="1.1" width="1645" height="2917" style="background: black; visibility: visible;" viewBox="0 0 1645 2917"><defs id="kity_defs_7"><linearGradient id="kity_linearGradient_17" x1="0" y1="0" x2="0" y2="1"><stop id="kity_stop_18" offset="0" stop-color="rgb(255, 255, 255)"></stop><stop id="kity_stop_19" offset="1" stop-color="rgb(204, 204, 204)"></stop></linearGradient><marker id="kity_marker_2" orient="auto" refX="6" refY="0" viewBox="-7 -7 14 14" markerWidth="7" markerHeight="7" markerUnits="userSpaceOnUse"><path id="kity_path_3" fill="#999" stroke="none" d="M6,0A6,6,0,1,1,-6,0A6,6,0,1,1,6,0"></path></marker></defs><g id="kity_g_8"><g id="minder1" text-rendering="geometricPrecision"><g id="minder_connect_group1"><path id="kity_path_31" fill="none" stroke="#999" stroke-width="1" d="M94.99999825033308,1490.499995347046A112.5,1305,0,0,1,207.49999825033308,185.49999534704602"></path><path id="kity_path_33" fill="none" stroke="#999" stroke-width="1" d="M491.4999982503331,185.49999534704602C511.4999982503331,185.49999534704602,511.4999982503331,185.49999534704602,531.4999982503331,185.49999534704602"></path><path id="kity_path_35" fill="none" stroke="#999" stroke-width="1" d="M677.4999982503331,185.49999534704602C697.4999982503331,185.49999534704602,697.4999982503331,37.499995347046024,717.4999982503331,37.499995347046024"></path><path id="kity_path_37" fill="none" stroke="#999" stroke-width="1" d="M677.4999982503331,185.49999534704602C697.4999982503331,185.49999534704602,697.4999982503331,111.49999534704602,717.4999982503331,111.49999534704602"></path><path id="kity_path_39" fill="none" stroke="#999" stroke-width="1" d="M677.4999982503331,185.49999534704602C697.4999982503331,185.49999534704602,697.4999982503331,185.49999534704602,717.4999982503331,185.49999534704602"></path><path id="kity_path_41" fill="none" stroke="#999" stroke-width="1" d="M677.4999982503331,185.49999534704602C697.4999982503331,185.49999534704602,697.4999982503331,259.499995347046,717.4999982503331,259.499995347046"></path><path id="kity_path_43" fill="none" stroke="#999" stroke-width="1" d="M677.4999982503331,185.49999534704602C697.4999982503331,185.49999534704602,697.4999982503331,333.499995347046,717.4999982503331,333.499995347046"></path><path id="kity_path_45" fill="none" stroke="#999" stroke-width="1" d="M94.99999825033308,1490.499995347046A112.5,1009,0,0,1,207.49999825033308,481.499995347046"></path><path id="kity_path_47" fill="none" stroke="#999" stroke-width="1" d="M451.4999982503331,481.499995347046C471.4999982503331,481.499995347046,471.4999982503331,481.499995347046,491.4999982503331,481.499995347046"></path><path id="kity_path_49" fill="none" stroke="#999" stroke-width="1" d="M625.4999982503331,481.499995347046C645.4999982503331,481.499995347046,645.4999982503331,407.499995347046,665.4999982503331,407.499995347046"></path><path id="kity_path_51" fill="none" stroke="#999" stroke-width="1" d="M625.4999982503331,481.499995347046C645.4999982503331,481.499995347046,645.4999982503331,481.499995347046,665.4999982503331,481.499995347046"></path><path id="kity_path_53" fill="none" stroke="#999" stroke-width="1" d="M625.4999982503331,481.499995347046C645.4999982503331,481.499995347046,645.4999982503331,555.499995347046,665.4999982503331,555.499995347046"></path><path id="kity_path_55" fill="none" stroke="#999" stroke-width="1" d="M94.99999825033308,1490.499995347046A112.5,333,0,0,1,207.49999825033308,1157.499995347046"></path><path id="kity_path_57" fill="none" stroke="#999" stroke-width="1" d="M329.4999982503331,1157.499995347046C349.4999982503331,1157.499995347046,349.4999982503331,1547.499995347046,369.4999982503331,1547.499995347046"></path><path id="kity_path_59" fill="none" stroke="#999" stroke-width="1" d="M445.4999982503331,1547.499995347046C465.4999982503331,1547.499995347046,465.4999982503331,1017.499995347046,485.4999982503331,1017.499995347046"></path><path id="kity_path_61" fill="none" stroke="#999" stroke-width="1" d="M547.4999982503331,1017.499995347046C567.4999982503331,1017.499995347046,567.4999982503331,1017.499995347046,587.4999982503331,1017.499995347046"></path><path id="kity_path_63" fill="none" stroke="#999" stroke-width="1" d="M1080.4999982503332,1017.499995347046C1100.4999982503332,1017.499995347046,1100.4999982503332,980.499995347046,1120.4999982503332,980.499995347046"></path><path id="kity_path_65" fill="none" stroke="#999" stroke-width="1" d="M1080.4999982503332,1017.499995347046C1100.4999982503332,1017.499995347046,1100.4999982503332,1054.499995347046,1120.4999982503332,1054.499995347046"></path><path id="kity_path_67" fill="none" stroke="#999" stroke-width="1" d="M445.4999982503331,1547.499995347046C465.4999982503331,1547.499995347046,465.4999982503331,1138.499995347046,485.4999982503331,1138.499995347046"></path><path id="kity_path_69" fill="none" stroke="#999" stroke-width="1" d="M543.4999982503331,1138.499995347046C563.4999982503331,1138.499995347046,563.4999982503331,1138.999995347046,583.4999982503331,1138.999995347046"></path><path id="kity_path_71" fill="none" stroke="#999" stroke-width="1" d="M445.4999982503331,1547.499995347046C465.4999982503331,1547.499995347046,465.4999982503331,1233.499995347046,485.4999982503331,1233.499995347046"></path><path id="kity_path_73" fill="none" stroke="#999" stroke-width="1" d="M557.4999982503331,1233.499995347046C577.4999982503331,1233.499995347046,577.4999982503331,1233.999995347046,597.4999982503331,1233.999995347046"></path><path id="kity_path_75" fill="none" stroke="#999" stroke-width="1" d="M445.4999982503331,1547.499995347046C465.4999982503331,1547.499995347046,465.4999982503331,1318.499995347046,485.4999982503331,1318.499995347046"></path><path id="kity_path_77" fill="none" stroke="#999" stroke-width="1" d="M531.4999982503331,1318.499995347046C551.4999982503331,1318.499995347046,551.4999982503331,1318.499995347046,571.4999982503331,1318.499995347046"></path><path id="kity_path_79" fill="none" stroke="#999" stroke-width="1" d="M445.4999982503331,1547.499995347046C465.4999982503331,1547.499995347046,465.4999982503331,1413.499995347046,485.4999982503331,1413.499995347046"></path><path id="kity_path_81" fill="none" stroke="#999" stroke-width="1" d="M532.4999982503331,1413.499995347046C552.4999982503331,1413.499995347046,552.4999982503331,1413.499995347046,572.4999982503331,1413.499995347046"></path><path id="kity_path_83" fill="none" stroke="#999" stroke-width="1" d="M445.4999982503331,1547.499995347046C465.4999982503331,1547.499995347046,465.4999982503331,1993.499995347046,485.4999982503331,1993.499995347046"></path><path id="kity_path_85" fill="none" stroke="#999" stroke-width="1" d="M542.4999982503331,1993.499995347046C562.4999982503331,1993.499995347046,562.4999982503331,1993.999995347046,582.4999982503331,1993.999995347046"></path><path id="kity_path_87" fill="none" stroke="#999" stroke-width="1" d="M445.4999982503331,1547.499995347046C465.4999982503331,1547.499995347046,465.4999982503331,2078.499995347046,485.4999982503331,2078.499995347046"></path><path id="kity_path_89" fill="none" stroke="#999" stroke-width="1" d="M565.4999982503331,2078.499995347046C585.4999982503331,2078.499995347046,585.4999982503331,2078.499995347046,605.4999982503331,2078.499995347046"></path><path id="kity_path_91" fill="none" stroke="#999" stroke-width="1" d="M445.4999982503331,1547.499995347046C465.4999982503331,1547.499995347046,465.4999982503331,1724.499995347046,485.4999982503331,1724.499995347046"></path><path id="kity_path_111" fill="none" stroke="#999" stroke-width="1" d="M94.99999825033308,1490.499995347046A112.5,819,0,0,0,207.49999825033308,2309.499995347046"></path><path id="kity_path_113" fill="none" stroke="#999" stroke-width="1" d="M408.4999982503331,2309.499995347046C428.4999982503331,2309.499995347046,428.4999982503331,2151.499995347046,448.4999982503331,2151.499995347046"></path><path id="kity_path_115" fill="none" stroke="#999" stroke-width="1" d="M408.4999982503331,2309.499995347046C428.4999982503331,2309.499995347046,428.4999982503331,2262.499995347046,448.4999982503331,2262.499995347046"></path><path id="kity_path_117" fill="none" stroke="#999" stroke-width="1" d="M705.4999982503331,2262.499995347046C725.4999982503331,2262.499995347046,725.4999982503331,2225.499995347046,745.4999982503331,2225.499995347046"></path><path id="kity_path_119" fill="none" stroke="#999" stroke-width="1" d="M824.4999982503331,2225.499995347046C844.4999982503331,2225.499995347046,844.4999982503331,2225.499995347046,864.4999982503331,2225.499995347046"></path><path id="kity_path_121" fill="none" stroke="#999" stroke-width="1" d="M705.4999982503331,2262.499995347046C725.4999982503331,2262.499995347046,725.4999982503331,2299.499995347046,745.4999982503331,2299.499995347046"></path><path id="kity_path_123" fill="none" stroke="#999" stroke-width="1" d="M819.4999982503331,2299.499995347046C839.4999982503331,2299.499995347046,839.4999982503331,2299.499995347046,859.4999982503331,2299.499995347046"></path><path id="kity_path_125" fill="none" stroke="#999" stroke-width="1" d="M408.4999982503331,2309.499995347046C428.4999982503331,2309.499995347046,428.4999982503331,2383.999995347046,448.4999982503331,2383.999995347046"></path><path id="kity_path_127" fill="none" stroke="#999" stroke-width="1" d="M408.4999982503331,2309.499995347046C428.4999982503331,2309.499995347046,428.4999982503331,2468.499995347046,448.4999982503331,2468.499995347046"></path><path id="kity_path_129" fill="none" stroke="#999" stroke-width="1" d="M94.99999825033308,1490.499995347046A112.5,1089,0,0,0,207.49999825033308,2579.499995347046"></path><path id="kity_path_131" fill="none" stroke="#999" stroke-width="1" d="M304.4999982503331,2579.499995347046C324.4999982503331,2579.499995347046,324.4999982503331,2542.499995347046,344.4999982503331,2542.499995347046"></path><path id="kity_path_133" fill="none" stroke="#999" stroke-width="1" d="M304.4999982503331,2579.499995347046C324.4999982503331,2579.499995347046,324.4999982503331,2616.499995347046,344.4999982503331,2616.499995347046"></path><path id="kity_path_135" fill="none" stroke="#999" stroke-width="1" d="M94.99999825033308,1490.499995347046A112.5,1305,0,0,0,207.49999825033308,2795.499995347046"></path><path id="kity_path_137" fill="none" stroke="#999" stroke-width="1" d="M287.4999982503331,2795.499995347046C307.4999982503331,2795.499995347046,307.4999982503331,2711.499995347046,327.4999982503331,2711.499995347046"></path><path id="kity_path_139" fill="none" stroke="#999" stroke-width="1" d="M418.4999982503331,2711.499995347046C438.4999982503331,2711.499995347046,438.4999982503331,2711.499995347046,458.4999982503331,2711.499995347046"></path><path id="kity_path_141" fill="none" stroke="#999" stroke-width="1" d="M287.4999982503331,2795.499995347046C307.4999982503331,2795.499995347046,307.4999982503331,2806.499995347046,327.4999982503331,2806.499995347046"></path><path id="kity_path_143" fill="none" stroke="#999" stroke-width="1" d="M367.4999982503331,2806.499995347046C387.4999982503331,2806.499995347046,387.4999982503331,2806.499995347046,407.4999982503331,2806.499995347046"></path><path id="kity_path_145" fill="none" stroke="#999" stroke-width="1" d="M287.4999982503331,2795.499995347046C307.4999982503331,2795.499995347046,307.4999982503331,2880.499995347046,327.4999982503331,2880.499995347046"></path><path id="kity_path_147" fill="none" stroke="#999" stroke-width="1" d="M439.4999982503331,2880.499995347046C459.4999982503331,2880.499995347046,459.4999982503331,2880.499995347046,479.4999982503331,2880.499995347046"></path><path id="kity_path_563" fill="none" stroke="#999" stroke-width="1" d="M329.4999982503331,1157.499995347046C349.4999982503331,1157.499995347046,349.4999982503331,767.499995347046,369.4999982503331,767.499995347046"></path><path id="kity_path_632" fill="none" stroke="#999" stroke-width="1" d="M447.4999982503331,767.499995347046C467.4999982503331,767.499995347046,467.4999982503331,639.999995347046,487.4999982503331,639.999995347046"></path><path id="kity_path_641" fill="none" stroke="#999" stroke-width="1" d="M447.4999982503331,767.499995347046C467.4999982503331,767.499995347046,467.4999982503331,727.499995347046,487.4999982503331,727.499995347046"></path><path id="kity_path_649" fill="none" stroke="#999" stroke-width="1" d="M447.4999982503331,767.499995347046C467.4999982503331,767.499995347046,467.4999982503331,807.499995347046,487.4999982503331,807.499995347046"></path><path id="kity_path_657" fill="none" stroke="#999" stroke-width="1" d="M447.4999982503331,767.499995347046C467.4999982503331,767.499995347046,467.4999982503331,894.999995347046,487.4999982503331,894.999995347046"></path><path id="kity_path_687" fill="none" stroke="#999" stroke-width="1" d="M716.4999982503331,1539.499995347046C736.4999982503331,1539.499995347046,736.4999982503331,1539.999995347046,756.4999982503331,1539.999995347046"></path><path id="kity_path_688" fill="none" stroke="#999" stroke-width="1" d="M560.4999982503331,1724.499995347046C580.4999982503331,1724.499995347046,580.4999982503331,1539.499995347046,600.4999982503331,1539.499995347046"></path><path id="kity_path_689" fill="none" stroke="#999" stroke-width="1" d="M691.4999982503331,1655.499995347046C711.4999982503331,1655.499995347046,711.4999982503331,1655.999995347046,731.4999982503331,1655.999995347046"></path><path id="kity_path_690" fill="none" stroke="#999" stroke-width="1" d="M560.4999982503331,1724.499995347046C580.4999982503331,1724.499995347046,580.4999982503331,1655.499995347046,600.4999982503331,1655.499995347046"></path><path id="kity_path_691" fill="none" stroke="#999" stroke-width="1" d="M742.4999982503331,1750.499995347046C762.4999982503331,1750.499995347046,762.4999982503331,1750.999995347046,782.4999982503331,1750.999995347046"></path><path id="kity_path_692" fill="none" stroke="#999" stroke-width="1" d="M560.4999982503331,1724.499995347046C580.4999982503331,1724.499995347046,580.4999982503331,1750.499995347046,600.4999982503331,1750.499995347046"></path><path id="kity_path_693" fill="none" stroke="#999" stroke-width="1" d="M675.4999982503331,1835.499995347046C695.4999982503331,1835.499995347046,695.4999982503331,1835.499995347046,715.4999982503331,1835.499995347046"></path><path id="kity_path_694" fill="none" stroke="#999" stroke-width="1" d="M560.4999982503331,1724.499995347046C580.4999982503331,1724.499995347046,580.4999982503331,1835.499995347046,600.4999982503331,1835.499995347046"></path><path id="kity_path_695" fill="none" stroke="#999" stroke-width="1" d="M560.4999982503331,1724.499995347046C580.4999982503331,1724.499995347046,580.4999982503331,1909.499995347046,600.4999982503331,1909.499995347046"></path></g><g id="minder_node1"><path id="kity_path_553" fill="rgba(0, 0, 0, .25)" stroke="none" d="M46.49999825033308,1448.499995347046h101a47,47,0,0,1,47,47v0a47,47,0,0,1,-47,47h-101a47,47,0,0,1,-47,-47v0a47,47,0,0,1,47,-47z" display="none"></path><path id="node_outline1" fill="black" stroke="none" d="M20.49999825033308,1473.499995347046h149v34h-149z" stroke-width="3"></path><g id="node_text1" fill="#ffffff"><text id="kity_text_22" text-rendering="inherit" font-size="14" dy=".8em" y="1483.499995347046" x="30.49999825033308">RISCV Trap（异常）</text></g></g><g id="kity_g_14" display="none"><path id="kity_path_15" fill="rgba(0, 255, 0, .5)" stroke="none" d="M485.4999982503331,1268.499995347046h47v20h-47z"></path><path id="kity_path_16" fill="none" stroke="#0f0" d="M485.4999982503331,1268.499995347046L532.4999982503331,1268.499995347046" stroke-width="1"></path></g><g id="minder_node2"><path id="kity_path_546" fill="rgba(0, 0, 0, .25)" stroke="none" d="M208.4999955876309,176.5000137323707h329a5,5,0,0,1,5,5v18a5,5,0,0,1,-5,5h-329a5,5,0,0,1,-5,-5v-18a5,5,0,0,1,5,-5z" display="none"></path><g id="node_expander7" style="cursor: pointer;"><path id="kity_path_376" fill="white" stroke="gray" d="M209.49999581304485,185.5000137323707A6,6,0,1,1,197.49999581304485,185.5000137323707A6,6,0,1,1,209.49999581304485,185.5000137323707"></path><path id="kity_path_377" fill="none" stroke="gray" d="M198.99999581304485,185.5000137323707L207.99999581304485,185.5000137323707"></path></g><path id="node_outline8" fill="black" stroke="none" d="M209.4999955876309,168.5000137323707h282v34h-282z" stroke-width="1"></path><g id="node_text8" fill="#ffffff"><text id="kity_text_169" text-rendering="inherit" font-size="14" dy=".8em" y="178.5000137323707" x="219.4999955876309">同步异常Exception，在指令执行期间产生</text></g></g><g id="minder_node3"><g id="node_expander6" style="cursor: pointer;"><path id="kity_path_373" fill="white" stroke="gray" d="M531.4999912765892,185.5000137323707A6,6,0,1,1,519.4999912765892,185.5000137323707A6,6,0,1,1,531.4999912765892,185.5000137323707"></path><path id="kity_path_374" fill="none" stroke="gray" d="M520.9999912765892,185.5000137323707L529.9999912765892,185.5000137323707"></path></g><path id="node_outline7" fill="black" stroke="none" d="M531.4999910511752,168.5000137323707h146v34h-146z"></path><g id="node_text7" fill="#ffffff"><text id="kity_text_167" text-rendering="inherit" font-size="14" dy=".8em" y="178.5000137323707" x="541.4999910511752">M模式下的同步异常</text></g></g><g id="minder_node4"><g id="node_expander1" style="cursor: pointer;" display="none"><path id="kity_path_358" fill="white" stroke="gray" d="M717.499988656152,37.500015817449594A6,6,0,1,1,705.499988656152,37.500015817449594A6,6,0,1,1,717.499988656152,37.500015817449594"></path><path id="kity_path_359" fill="none" stroke="gray"></path></g><path id="node_outline2" fill="black" stroke="none" d="M717.4999884307381,20.500015817449594h263v34h-263z"></path><g id="node_text2" fill="#ffffff"><text id="kity_text_157" text-rendering="inherit" font-size="14" dy=".8em" y="30.500015817449594" x="727.4999884307381">访问错误异常 Instruction access fault</text></g></g><g id="minder_node5"><g id="node_expander2" style="cursor: pointer;" display="none"><path id="kity_path_361" fill="white" stroke="gray" d="M717.499988656152,111.50001477491014A6,6,0,1,1,705.499988656152,111.50001477491014A6,6,0,1,1,717.499988656152,111.50001477491014"></path><path id="kity_path_362" fill="none" stroke="gray"></path></g><path id="node_outline3" fill="black" stroke="none" d="M717.4999884307381,94.50001477491014h154v34h-154z"></path><g id="node_text3" fill="#ffffff"><text id="kity_text_159" text-rendering="inherit" font-size="14" dy=".8em" y="104.50001477491014" x="727.4999884307381">断点异常 Breakpoint</text></g></g><g id="minder_node6"><g id="node_expander3" style="cursor: pointer;" display="none"><path id="kity_path_364" fill="white" stroke="gray" d="M717.499988656152,185.5000137323707A6,6,0,1,1,705.499988656152,185.5000137323707A6,6,0,1,1,717.499988656152,185.5000137323707"></path><path id="kity_path_365" fill="none" stroke="gray"></path></g><path id="node_outline4" fill="black" stroke="none" d="M717.4999884307381,168.5000137323707h105v34h-105z"></path><g id="node_text4" fill="#ffffff"><text id="kity_text_161" text-rendering="inherit" font-size="14" dy=".8em" y="178.5000137323707" x="727.4999884307381">环境调用异常</text></g></g><g id="minder_node7"><g id="node_expander4" style="cursor: pointer;" display="none"><path id="kity_path_367" fill="white" stroke="gray" d="M717.499988656152,259.500012689831A6,6,0,1,1,705.499988656152,259.500012689831A6,6,0,1,1,717.499988656152,259.500012689831"></path><path id="kity_path_368" fill="none" stroke="gray"></path></g><path id="node_outline5" fill="black" stroke="none" d="M717.4999884307381,242.500012689831h225v34h-225z"></path><g id="node_text5" fill="#ffffff"><text id="kity_text_163" text-rendering="inherit" font-size="14" dy=".8em" y="252.500012689831" x="727.4999884307381">非法指令异常 Illegal instruction</text></g></g><g id="minder_node8"><g id="node_expander5" style="cursor: pointer;" display="none"><path id="kity_path_370" fill="white" stroke="gray" d="M717.499988656152,333.50001164729156A6,6,0,1,1,705.499988656152,333.50001164729156A6,6,0,1,1,717.499988656152,333.50001164729156"></path><path id="kity_path_371" fill="none" stroke="gray"></path></g><path id="node_outline6" fill="black" stroke="none" d="M717.4999884307381,316.50001164729156h328v34h-328z"></path><g id="node_text6" fill="#ffffff"><text id="kity_text_165" text-rendering="inherit" font-size="14" dy=".8em" y="326.50001164729156" x="727.4999884307381">非对齐位置异常 Instruction address misaligned</text></g></g><g id="minder_node9"><path id="kity_path_547" fill="rgba(0, 0, 0, .25)" stroke="none" d="M208.4999955876309,472.5000095622129h283a5,5,0,0,1,5,5v18a5,5,0,0,1,-5,5h-283a5,5,0,0,1,-5,-5v-18a5,5,0,0,1,5,-5z" display="none"></path><g id="node_expander12" style="cursor: pointer;"><path id="kity_path_391" fill="white" stroke="gray" d="M209.49999581304485,481.5000095622129A6,6,0,1,1,197.49999581304485,481.5000095622129A6,6,0,1,1,209.49999581304485,481.5000095622129"></path><path id="kity_path_392" fill="none" stroke="gray" d="M198.99999581304485,481.5000095622129L207.99999581304485,481.5000095622129"></path></g><path id="node_outline13" fill="black" stroke="none" d="M209.4999955876309,464.5000095622129h242v34h-242z" stroke-width="1"></path><g id="node_text13" fill="#ffffff"><text id="kity_text_179" text-rendering="inherit" font-size="14" dy=".8em" y="474.5000095622129" x="219.4999955876309">中断Interruption，由外部设备产生</text></g></g><g id="minder_node10"><g id="node_expander11" style="cursor: pointer;"><path id="kity_path_388" fill="white" stroke="gray" d="M491.49999184012404,481.5000095622129A6,6,0,1,1,479.49999184012404,481.5000095622129A6,6,0,1,1,491.49999184012404,481.5000095622129"></path><path id="kity_path_389" fill="none" stroke="gray" d="M480.99999184012404,481.5000095622129L489.99999184012404,481.5000095622129"></path></g><path id="node_outline12" fill="black" stroke="none" d="M491.4999916147101,464.5000095622129h134v34h-134z"></path><g id="node_text12" fill="#ffffff"><text id="kity_text_177" text-rendering="inherit" font-size="14" dy=".8em" y="474.5000095622129" x="501.4999916147101">三个标准的中断源</text></g></g><g id="minder_node11"><g id="node_expander8" style="cursor: pointer;" display="none"><path id="kity_path_379" fill="white" stroke="gray" d="M665.4999893887474,407.5000106047521A6,6,0,1,1,653.4999893887474,407.5000106047521A6,6,0,1,1,665.4999893887474,407.5000106047521"></path><path id="kity_path_380" fill="none" stroke="gray"></path></g><path id="node_outline9" fill="black" stroke="none" d="M665.4999891633335,390.5000106047521h50v34h-50z"></path><g id="node_text9" fill="#ffffff"><text id="kity_text_171" text-rendering="inherit" font-size="14" dy=".8em" y="400.5000106047521" x="675.4999891633335">软件</text></g></g><g id="minder_node12"><g id="node_expander9" style="cursor: pointer;" display="none"><path id="kity_path_382" fill="white" stroke="gray" d="M665.4999893887474,481.5000095622129A6,6,0,1,1,653.4999893887474,481.5000095622129A6,6,0,1,1,665.4999893887474,481.5000095622129"></path><path id="kity_path_383" fill="none" stroke="gray"></path></g><path id="node_outline10" fill="black" stroke="none" d="M665.4999891633335,464.5000095622129h49v34h-49z"></path><g id="node_text10" fill="#ffffff"><text id="kity_text_173" text-rendering="inherit" font-size="14" dy=".8em" y="474.5000095622129" x="675.4999891633335">时钟</text></g></g><g id="minder_node13"><g id="node_expander10" style="cursor: pointer;" display="none"><path id="kity_path_385" fill="white" stroke="gray" d="M665.4999893887474,555.5000085196733A6,6,0,1,1,653.4999893887474,555.5000085196733A6,6,0,1,1,665.4999893887474,555.5000085196733"></path><path id="kity_path_386" fill="none" stroke="gray"></path></g><path id="node_outline11" fill="black" stroke="none" d="M665.4999891633335,538.5000085196733h50v34h-50z"></path><g id="node_text11" fill="#ffffff"><text id="kity_text_175" text-rendering="inherit" font-size="14" dy=".8em" y="548.5000085196733" x="675.4999891633335">外部</text></g></g><g id="minder_node14"><path id="kity_path_548" fill="rgba(0, 0, 0, .25)" stroke="none" d="M208.4999955876309,1148.5000000384737h143a5,5,0,0,1,5,5v18a5,5,0,0,1,-5,5h-143a5,5,0,0,1,-5,-5v-18a5,5,0,0,1,5,-5z" display="none"></path><g id="node_expander40" style="cursor: pointer;"><path id="kity_path_475" fill="white" stroke="gray" d="M209.49999581304485,1157.5000000384737A6,6,0,1,1,197.49999581304485,1157.5000000384737A6,6,0,1,1,209.49999581304485,1157.5000000384737"></path><path id="kity_path_476" fill="none" stroke="gray" d="M198.99999581304485,1157.5000000384737L207.99999581304485,1157.5000000384737"></path></g><path id="node_outline41" fill="black" stroke="none" d="M209.4999955876309,1140.5000000384737h120v34h-120z" stroke-width="1"></path><g id="node_text41" fill="#ffffff"><text id="kity_text_243" text-rendering="inherit" font-size="14" dy=".8em" y="1150.5000000384737" x="219.4999955876309">M模式Trap处理</text></g></g><g id="minder_node15"><g id="node_expander39" style="cursor: pointer;"><path id="kity_path_472" fill="white" stroke="gray" d="M369.49999355890543,1547.4999945440088A6,6,0,1,1,357.49999355890543,1547.4999945440088A6,6,0,1,1,369.49999355890543,1547.4999945440088"></path><path id="kity_path_473" fill="none" stroke="gray" d="M358.99999355890543,1547.4999945440088L367.99999355890543,1547.4999945440088"></path></g><path id="node_outline40" fill="black" stroke="none" d="M369.4999933334915,1530.4999945440088h76v34h-76z"></path><g id="node_text40" fill="#ffffff"><text id="kity_text_241" text-rendering="inherit" font-size="14" dy=".8em" y="1540.4999945440088" x="379.4999933334915">相关CSR</text></g></g><g id="minder_node16"><g id="node_expander16" style="cursor: pointer;"><path id="kity_path_403" fill="white" stroke="gray" d="M485.4999919246543,1017.5000020108457A6,6,0,1,1,473.4999919246543,1017.5000020108457A6,6,0,1,1,485.4999919246543,1017.5000020108457"></path><path id="kity_path_404" fill="none" stroke="gray" d="M474.9999919246543,1017.5000020108457L483.9999919246543,1017.5000020108457"></path></g><path id="node_outline17" fill="black" stroke="none" d="M485.49999169924035,1000.5000020108457h62v34h-62z"></path><g id="node_text17" fill="#ffffff"><text id="kity_text_187" text-rendering="inherit" font-size="14" dy=".8em" y="1010.5000020108457" font-weight="bold" x="495.49999169924035">mtvec</text></g></g><g id="minder_node17"><g id="node_expander15" style="cursor: pointer;"><path id="kity_path_400" fill="white" stroke="gray" d="M587.4999904876404,1017.5000020108457A6,6,0,1,1,575.4999904876404,1017.5000020108457A6,6,0,1,1,587.4999904876404,1017.5000020108457"></path><path id="kity_path_401" fill="none" stroke="gray" d="M576.9999904876404,1017.5000020108457L585.9999904876404,1017.5000020108457"></path></g><path id="node_outline16" fill="black" stroke="none" d="M587.4999902622264,1000.5000020108457h493v34h-493z"></path><g id="node_text16" fill="#ffffff"><text id="kity_text_185" text-rendering="inherit" font-size="14" dy=".8em" y="1010.5000020108457" x="597.4999902622264">consisting of a vector base address (BASE) and a vector mode (MODE).</text></g></g><g id="minder_node18"><g id="node_expander13" style="cursor: pointer;" display="none"><path id="kity_path_394" fill="white" stroke="gray" d="M1120.4999829785381,980.5000025321156A6,6,0,1,1,1108.4999829785381,980.5000025321156A6,6,0,1,1,1120.4999829785381,980.5000025321156"></path><path id="kity_path_395" fill="none" stroke="gray"></path></g><path id="node_outline14" fill="black" stroke="none" d="M1120.4999827531242,963.5000025321156h348v34h-348z"></path><g id="node_text14" fill="#ffffff"><text id="kity_text_181" text-rendering="inherit" font-size="14" dy=".8em" y="973.5000025321156" x="1130.4999827531242">MODE==0：Direct All exceptions set pc to BASE.</text></g></g><g id="minder_node19"><g id="node_expander14" style="cursor: pointer;" display="none"><path id="kity_path_397" fill="white" stroke="gray" d="M1120.4999829785381,1054.500001489576A6,6,0,1,1,1108.4999829785381,1054.500001489576A6,6,0,1,1,1120.4999829785381,1054.500001489576"></path><path id="kity_path_398" fill="none" stroke="gray"></path></g><path id="node_outline15" fill="black" stroke="none" d="M1120.4999827531242,1037.500001489576h505v34h-505z"></path><g id="node_text15" fill="#ffffff"><text id="kity_text_183" text-rendering="inherit" font-size="14" dy=".8em" y="1047.500001489576" x="1130.4999827531242">MODE==1：Vectored Asynchronous interrupts set pc to BASE+4×cause.</text></g></g><g id="minder_node20"><g id="node_expander18" style="cursor: pointer;"><path id="kity_path_409" fill="white" stroke="gray" d="M485.4999919246543,1138.5000003061527A6,6,0,1,1,473.4999919246543,1138.5000003061527A6,6,0,1,1,485.4999919246543,1138.5000003061527"></path><path id="kity_path_410" fill="none" stroke="gray" d="M474.9999919246543,1138.5000003061527L483.9999919246543,1138.5000003061527"></path></g><path id="node_outline19" fill="black" stroke="none" d="M485.49999169924035,1121.5000003061527h58v34h-58z"></path><g id="node_text19" fill="#ffffff"><text id="kity_text_191" text-rendering="inherit" font-size="14" dy=".8em" y="1131.5000003061527" font-weight="bold" x="495.49999169924035">mepc</text></g></g><g id="minder_node21"><g id="node_expander17" style="cursor: pointer;" display="none"><path id="kity_path_406" fill="white" stroke="gray" d="M583.4999905439938,1139.0000002991085A6,6,0,1,1,571.4999905439938,1139.0000002991085A6,6,0,1,1,583.4999905439938,1139.0000002991085"></path><path id="kity_path_407" fill="none" stroke="gray"></path></g><path id="node_outline18" fill="black" stroke="none" d="M583.4999903185799,1111.5000003061527h427v55h-427z"></path><g id="node_text18" fill="#ffffff"><text id="kity_text_189" text-rendering="inherit" font-size="14" dy=".8em" y="1121.0000003061527" x="593.4999903185799">指向发生异常的指令；当异常发生时，异常的PC被保存在mepc。</text><text id="kity_text_685" text-rendering="inherit" font-size="14" dy=".8em" y="1142.0000003061527" x="593.4999903185799">就是从Trap中返回的地址。</text></g></g><g id="minder_node22"><g id="node_expander20" style="cursor: pointer;"><path id="kity_path_415" fill="white" stroke="gray" d="M485.4999919246543,1233.4999989677576A6,6,0,1,1,473.4999919246543,1233.4999989677576A6,6,0,1,1,485.4999919246543,1233.4999989677576"></path><path id="kity_path_416" fill="none" stroke="gray" d="M474.9999919246543,1233.4999989677576L483.9999919246543,1233.4999989677576"></path></g><path id="node_outline21" fill="black" stroke="none" d="M485.49999169924035,1216.4999989677576h72v34h-72z"></path><g id="node_text21" fill="#ffffff"><text id="kity_text_195" text-rendering="inherit" font-size="14" dy=".8em" y="1226.4999989677576" font-weight="bold" x="495.49999169924035">mcause</text></g></g><g id="minder_node23"><g id="node_expander19" style="cursor: pointer;" display="none"><path id="kity_path_412" fill="white" stroke="gray" d="M597.4999903467566,1233.9999989607134A6,6,0,1,1,585.4999903467566,1233.9999989607134A6,6,0,1,1,597.4999903467566,1233.9999989607134"></path><path id="kity_path_413" fill="none" stroke="gray"></path></g><path id="node_outline20" fill="black" stroke="none" d="M597.4999901213426,1206.4999989677576h584v55h-584z"></path><g id="node_text20" fill="#ffffff"><text id="kity_text_193" text-rendering="inherit" font-size="14" dy=".8em" y="1215.9999989677576" x="607.4999901213426">表示是发生了Interruption还是Exception，以及发生了什么类型的Interrupt和Exception。</text><text id="kity_text_686" text-rendering="inherit" font-size="14" dy=".8em" y="1236.9999989677576" x="607.4999901213426">当Trap发生时，硬件设置mcause。</text></g></g><g id="minder_node24"><g id="node_expander22" style="cursor: pointer;"><path id="kity_path_421" fill="white" stroke="gray" d="M485.4999919246543,1318.499997770246A6,6,0,1,1,473.4999919246543,1318.499997770246A6,6,0,1,1,485.4999919246543,1318.499997770246"></path><path id="kity_path_422" fill="none" stroke="gray" d="M474.9999919246543,1318.499997770246L483.9999919246543,1318.499997770246"></path></g><path id="node_outline23" fill="black" stroke="none" d="M485.49999169924035,1301.499997770246h46v34h-46z"></path><g id="node_text23" fill="#ffffff"><text id="kity_text_199" text-rendering="inherit" font-size="14" dy=".8em" y="1311.499997770246" font-weight="bold" x="495.49999169924035">mie</text></g></g><g id="minder_node25"><g id="node_expander21" style="cursor: pointer;" display="none"><path id="kity_path_418" fill="white" stroke="gray" d="M571.4999907130543,1318.499997770246A6,6,0,1,1,559.4999907130543,1318.499997770246A6,6,0,1,1,571.4999907130543,1318.499997770246"></path><path id="kity_path_419" fill="none" stroke="gray"></path></g><path id="node_outline22" fill="black" stroke="none" d="M571.4999904876404,1301.499997770246h442v34h-442z"></path><g id="node_text22" fill="#ffffff"><text id="kity_text_197" text-rendering="inherit" font-size="14" dy=".8em" y="1311.499997770246" x="581.4999904876404">每个Trap在mie中都有一个enable bit，对应表1。bit为1表示能处理</text></g></g><g id="minder_node26"><g id="node_expander24" style="cursor: pointer;"><path id="kity_path_427" fill="white" stroke="gray" d="M485.4999919246543,1413.4999964318506A6,6,0,1,1,473.4999919246543,1413.4999964318506A6,6,0,1,1,485.4999919246543,1413.4999964318506"></path><path id="kity_path_428" fill="none" stroke="gray" d="M474.9999919246543,1413.4999964318506L483.9999919246543,1413.4999964318506"></path></g><path id="node_outline25" fill="black" stroke="none" d="M485.49999169924035,1396.4999964318506h47v34h-47z"></path><g id="node_text25" fill="#ffffff"><text id="kity_text_205" text-rendering="inherit" font-size="14" dy=".8em" y="1406.4999964318506" font-weight="bold" x="495.49999169924035">mip</text></g></g><g id="minder_node27"><g id="node_expander23" style="cursor: pointer;" display="none"><path id="kity_path_424" fill="white" stroke="gray" d="M572.4999906989659,1413.4999964318506A6,6,0,1,1,560.4999906989659,1413.4999964318506A6,6,0,1,1,572.4999906989659,1413.4999964318506"></path><path id="kity_path_425" fill="none" stroke="gray"></path></g><path id="node_outline24" fill="black" stroke="none" d="M572.499990473552,1375.4999964318506h510v76h-510z"></path><g id="node_text24" fill="#ffffff"><text id="kity_text_201" text-rendering="inherit" font-size="14" dy=".8em" y="1385.4999964318506" x="582.499990473552">和mie有相同布局，指示当前待处理的Trap；</text><text id="kity_text_202" text-rendering="inherit" font-size="14" dy=".8em" y="1406.4999964318506" x="582.499990473552">当mip[i]被set 1的时候，如果mie[i]==1, mstatus[mie]==1,那么就产生中断了</text><text id="kity_text_203" text-rendering="inherit" font-size="14" dy=".8em" y="1427.4999964318506" x="582.499990473552">中断处理完成之后，应该手动的将mip的对应位置0</text></g></g><g id="minder_node28"><g id="node_expander26" style="cursor: pointer;"><path id="kity_path_433" fill="white" stroke="gray" d="M485.4999919246543,1993.4999882605953A6,6,0,1,1,473.4999919246543,1993.4999882605953A6,6,0,1,1,485.4999919246543,1993.4999882605953"></path><path id="kity_path_434" fill="none" stroke="gray" d="M474.9999919246543,1993.4999882605953L483.9999919246543,1993.4999882605953"></path></g><path id="node_outline27" fill="black" stroke="none" d="M485.49999169924035,1976.4999882605953h57v34h-57z"></path><g id="node_text27" fill="#ffffff"><text id="kity_text_210" text-rendering="inherit" font-size="14" dy=".8em" y="1986.4999882605953" x="495.49999169924035">mtval</text></g></g><g id="minder_node29"><g id="node_expander25" style="cursor: pointer;" display="none"><path id="kity_path_430" fill="white" stroke="gray" d="M582.4999905580822,1993.999988253551A6,6,0,1,1,570.4999905580822,1993.999988253551A6,6,0,1,1,582.4999905580822,1993.999988253551"></path><path id="kity_path_431" fill="none" stroke="gray"></path></g><path id="node_outline26" fill="black" stroke="none" d="M582.4999903326683,1966.4999882605953h452v55h-452z"></path><g id="node_text26" fill="#ffffff"><text id="kity_text_207" text-rendering="inherit" font-size="14" dy=".8em" y="1975.9999882605953" x="592.4999903326683">它保存了陷入（ trap） 的附加信息：地址例外中出错</text><text id="kity_text_208" text-rendering="inherit" font-size="14" dy=".8em" y="1996.9999882605953" x="592.4999903326683">的地址、发生非法指令例外的指令本身，对于其他异常，它的值为 0。</text></g></g><g id="minder_node30"><g id="node_expander28" style="cursor: pointer;"><path id="kity_path_439" fill="white" stroke="gray" d="M485.4999919246543,2078.4999870630836A6,6,0,1,1,473.4999919246543,2078.4999870630836A6,6,0,1,1,485.4999919246543,2078.4999870630836"></path><path id="kity_path_440" fill="none" stroke="gray" d="M474.9999919246543,2078.4999870630836L483.9999919246543,2078.4999870630836"></path></g><path id="node_outline29" fill="black" stroke="none" d="M485.49999169924035,2061.4999870630836h80v34h-80z"></path><g id="node_text29" fill="#ffffff"><text id="kity_text_214" text-rendering="inherit" font-size="14" dy=".8em" y="2071.4999870630836" x="495.49999169924035">mscratch</text></g></g><g id="minder_node31"><g id="node_expander27" style="cursor: pointer;" display="none"><path id="kity_path_436" fill="white" stroke="gray" d="M605.4999902340496,2078.4999870630836A6,6,0,1,1,593.4999902340496,2078.4999870630836A6,6,0,1,1,605.4999902340496,2078.4999870630836"></path><path id="kity_path_437" fill="none" stroke="gray"></path></g><path id="node_outline28" fill="black" stroke="none" d="M605.4999900086357,2061.4999870630836h216v34h-216z"></path><g id="node_text28" fill="#ffffff"><text id="kity_text_212" text-rendering="inherit" font-size="14" dy=".8em" y="2071.4999870630836" x="615.4999900086357">它暂时存放一个字大小的数据。</text></g></g><g id="minder_node32" opacity="1"><g id="node_expander38" style="cursor: pointer;"><path id="kity_path_469" fill="white" stroke="gray" d="M485.4999919246543,1724.4999920503672A6,6,0,1,1,473.4999919246543,1724.4999920503672A6,6,0,1,1,485.4999919246543,1724.4999920503672"></path><path id="kity_path_470" fill="none" stroke="gray" d="M474.9999919246543,1724.4999920503672L483.9999919246543,1724.4999920503672"></path></g><path id="node_outline39" fill="black" stroke="none" d="M485.49999169924035,1707.4999920503672h75v34h-75z"></path><g id="node_text39" fill="#ffffff"><text id="kity_text_239" text-rendering="inherit" font-size="14" dy=".8em" y="1717.4999920503672" font-weight="bold" x="495.49999169924035">mstatus</text></g></g><g id="minder_node42"><path id="kity_path_549" fill="rgba(0, 0, 0, .25)" stroke="none" d="M208.4999955876309,2300.4999838086696h235a5,5,0,0,1,5,5v18a5,5,0,0,1,-5,5h-235a5,5,0,0,1,-5,-5v-18a5,5,0,0,1,5,-5z" display="none"></path><g id="node_expander49" style="cursor: pointer;"><path id="kity_path_502" fill="white" stroke="gray" d="M209.49999581304485,2309.4999838086696A6,6,0,1,1,197.49999581304485,2309.4999838086696A6,6,0,1,1,209.49999581304485,2309.4999838086696"></path><path id="kity_path_503" fill="none" stroke="gray" d="M198.99999581304485,2309.4999838086696L207.99999581304485,2309.4999838086696"></path></g><path id="node_outline50" fill="black" stroke="none" d="M209.4999955876309,2292.4999838086696h199v34h-199z" stroke-width="1"></path><g id="node_text50" fill="#ffffff"><text id="kity_text_262" text-rendering="inherit" font-size="14" dy=".8em" y="2302.4999838086696" x="219.4999955876309">S模式Trap处理——委托机制</text></g></g><g id="minder_node43"><g id="node_expander41" style="cursor: pointer;" display="none"><path id="kity_path_478" fill="white" stroke="gray" d="M448.4999924459241,2151.4999860346325A6,6,0,1,1,436.4999924459241,2151.4999860346325A6,6,0,1,1,448.4999924459241,2151.4999860346325"></path><path id="kity_path_479" fill="none" stroke="gray"></path></g><path id="node_outline42" fill="black" stroke="none" d="M448.49999222051014,2134.4999860346325h586v34h-586z"></path><g id="node_text42" fill="#ffffff"><text id="kity_text_245" text-rendering="inherit" font-size="14" dy=".8em" y="2144.4999860346325" x="458.49999222051014">所有的trap默认由M mode处理，委托(delegation)是指有选择的将trap交给S mode处理。</text></g></g><g id="minder_node44"><g id="node_expander46" style="cursor: pointer;"><path id="kity_path_493" fill="white" stroke="gray" d="M448.4999924459241,2262.499984470823A6,6,0,1,1,436.4999924459241,2262.499984470823A6,6,0,1,1,448.4999924459241,2262.499984470823"></path><path id="kity_path_494" fill="none" stroke="gray" d="M437.9999924459241,2262.499984470823L446.9999924459241,2262.499984470823"></path></g><path id="node_outline47" fill="black" stroke="none" d="M448.49999222051014,2245.499984470823h257v34h-257z"></path><g id="node_text47" fill="#ffffff"><text id="kity_text_255" text-rendering="inherit" font-size="14" dy=".8em" y="2255.499984470823" x="458.49999222051014">Machine Trap Delegation Registers&#xa0;</text></g></g><g id="minder_node45"><g id="node_expander43" style="cursor: pointer;"><path id="kity_path_484" fill="white" stroke="gray" d="M745.4999882616776,2225.4999849920932A6,6,0,1,1,733.4999882616776,2225.4999849920932A6,6,0,1,1,745.4999882616776,2225.4999849920932"></path><path id="kity_path_485" fill="none" stroke="gray" d="M734.9999882616776,2225.4999849920932L743.9999882616776,2225.4999849920932"></path></g><path id="node_outline44" fill="black" stroke="none" d="M745.4999880362636,2208.4999849920932h79v34h-79z"></path><g id="node_text44" fill="#ffffff"><text id="kity_text_249" text-rendering="inherit" font-size="14" dy=".8em" y="2218.4999849920932" x="755.4999880362636">medeleg</text></g></g><g id="minder_node46"><g id="node_expander42" style="cursor: pointer;" display="none"><path id="kity_path_481" fill="white" stroke="gray" d="M864.4999865851614,2225.4999849920932A6,6,0,1,1,852.4999865851614,2225.4999849920932A6,6,0,1,1,864.4999865851614,2225.4999849920932"></path><path id="kity_path_482" fill="none" stroke="gray"></path></g><path id="node_outline43" fill="black" stroke="none" d="M864.4999863597475,2208.4999849920932h485v34h-485z"></path><g id="node_text43" fill="#ffffff"><text id="kity_text_247" text-rendering="inherit" font-size="14" dy=".8em" y="2218.4999849920932" x="874.4999863597475"> Machine Expection Delegation，每个位对应表一异常号，为1表示被委托</text></g></g><g id="minder_node47"><g id="node_expander45" style="cursor: pointer;"><path id="kity_path_490" fill="white" stroke="gray" d="M745.4999882616776,2299.4999839495536A6,6,0,1,1,733.4999882616776,2299.4999839495536A6,6,0,1,1,745.4999882616776,2299.4999839495536"></path><path id="kity_path_491" fill="none" stroke="gray" d="M734.9999882616776,2299.4999839495536L743.9999882616776,2299.4999839495536"></path></g><path id="node_outline46" fill="black" stroke="none" d="M745.4999880362636,2282.4999839495536h74v34h-74z"></path><g id="node_text46" fill="#ffffff"><text id="kity_text_253" text-rendering="inherit" font-size="14" dy=".8em" y="2292.4999839495536" x="755.4999880362636">mideleg</text></g></g><g id="minder_node48"><g id="node_expander44" style="cursor: pointer;" display="none"><path id="kity_path_487" fill="white" stroke="gray" d="M859.4999866556033,2299.4999839495536A6,6,0,1,1,847.4999866556033,2299.4999839495536A6,6,0,1,1,859.4999866556033,2299.4999839495536"></path><path id="kity_path_488" fill="none" stroke="gray"></path></g><path id="node_outline45" fill="black" stroke="none" d="M859.4999864301893,2282.4999839495536h479v34h-479z"></path><g id="node_text45" fill="#ffffff"><text id="kity_text_251" text-rendering="inherit" font-size="14" dy=".8em" y="2292.4999839495536" x="869.4999864301893"> Machine Interrupt Delegation，每个位对应表一中断号，为1表示被委托</text></g></g><g id="minder_node49"><g id="node_expander47" style="cursor: pointer;" display="none"><path id="kity_path_496" fill="white" stroke="gray" d="M448.4999924459241,2383.9999827590864A6,6,0,1,1,436.4999924459241,2383.9999827590864A6,6,0,1,1,448.4999924459241,2383.9999827590864"></path><path id="kity_path_497" fill="none" stroke="gray"></path></g><path id="node_outline48" fill="black" stroke="none" d="M448.49999222051014,2356.4999827661304h980v55h-980z"></path><g id="node_text48" fill="#ffffff"><text id="kity_text_257" text-rendering="inherit" font-size="14" dy=".8em" y="2365.9999827661304" font-weight="bold" x="458.49999222051014">Setting a bit in medeleg or mideleg will delegate the corresponding trap, when occurring in S-mode or U-mode, to the S-mode trap handler.</text><text id="kity_text_258" text-rendering="inherit" font-size="14" dy=".8em" y="2386.9999827661304" font-weight="bold" x="458.49999222051014">也就是说无论如何，在x mode发生的异常不会在x以下的mode处理</text></g><g id="kity_g_696" style="cursor: pointer;"><path id="kity_path_697" fill="none" stroke="none" d="M1404.9999806550406,2375.4999827590864h12a2,2,0,0,1,2,2v13a2,2,0,0,1,-2,2h-12a2,2,0,0,1,-2,-2v-13a2,2,0,0,1,2,-2z"></path><path id="kity_path_698" fill="#999" stroke="none" d="M1413.9999805656337,2386.499982904847H1407.9999805656337V2385.499982904847h6L1413.9999805656337,2386.499982904847L1413.9999805656337,2386.499982904847zM1413.9999805656337,2384.499982904847H1407.9999805656337V2383.499982904847h6V2384.499982904847zM1413.9999805656337,2382.499982904847H1407.9999805656337V2381.499982904847h6V2382.499982904847zM1413.4999805656337,2388.499982904847H1406.9999805656337V2379.499982904847h8v7.5M1413.9999805656337,2389.499982904847l2,-2V2378.499982904847H1405.9999805656337v11"></path></g></g><g id="minder_node50"><g id="node_expander48" style="cursor: pointer;" display="none"><path id="kity_path_499" fill="white" stroke="gray" d="M448.4999924459241,2468.4999815686188A6,6,0,1,1,436.4999924459241,2468.4999815686188A6,6,0,1,1,448.4999924459241,2468.4999815686188"></path><path id="kity_path_500" fill="none" stroke="gray"></path></g><path id="node_outline49" fill="black" stroke="none" d="M448.49999222051014,2451.4999815686188h793v34h-793z"></path><g id="node_text49" fill="#ffffff"><text id="kity_text_260" text-rendering="inherit" font-size="14" dy=".8em" y="2461.4999815686188" x="458.49999222051014">S 模式有几个异常处理 CSR： sepc、 stvec、 scause、 sscratch、 stval 和 sstatus，它们执行与 M 模式 CSR 相同的功能。</text></g></g><g id="minder_node51"><path id="kity_path_550" fill="rgba(0, 0, 0, .25)" stroke="none" d="M208.4999955876309,2570.4999800048095h116a5,5,0,0,1,5,5v18a5,5,0,0,1,-5,5h-116a5,5,0,0,1,-5,-5v-18a5,5,0,0,1,5,-5z" display="none"></path><g id="node_expander52" style="cursor: pointer;"><path id="kity_path_511" fill="white" stroke="gray" d="M209.49999581304485,2579.4999800048095A6,6,0,1,1,197.49999581304485,2579.4999800048095A6,6,0,1,1,209.49999581304485,2579.4999800048095"></path><path id="kity_path_512" fill="none" stroke="gray" d="M198.99999581304485,2579.4999800048095L207.99999581304485,2579.4999800048095"></path></g><path id="node_outline53" fill="black" stroke="none" d="M209.4999955876309,2562.4999800048095h95v34h-95z" stroke-width="1"></path><g id="node_text53" fill="#ffffff"><text id="kity_text_268" text-rendering="inherit" font-size="14" dy=".8em" y="2572.4999800048095" x="219.4999955876309">system_call</text></g></g><g id="minder_node52"><g id="node_expander50" style="cursor: pointer;" display="none"><path id="kity_path_505" fill="white" stroke="gray" d="M344.4999939111147,2542.499980526079A6,6,0,1,1,332.4999939111147,2542.499980526079A6,6,0,1,1,344.4999939111147,2542.499980526079"></path><path id="kity_path_506" fill="none" stroke="gray"></path></g><path id="node_outline51" fill="black" stroke="none" d="M344.49999368570076,2525.499980526079h147v34h-147z"></path><g id="node_text51" fill="#ffffff"><text id="kity_text_264" text-rendering="inherit" font-size="14" dy=".8em" y="2535.499980526079" x="354.49999368570076">注：这部分是我猜的</text></g></g><g id="minder_node53"><g id="node_expander51" style="cursor: pointer;" display="none"><path id="kity_path_508" fill="white" stroke="gray" d="M344.4999939111147,2616.4999794835394A6,6,0,1,1,332.4999939111147,2616.4999794835394A6,6,0,1,1,344.4999939111147,2616.4999794835394"></path><path id="kity_path_509" fill="none" stroke="gray"></path></g><path id="node_outline52" fill="black" stroke="none" d="M344.49999368570076,2599.4999794835394h684v34h-684z"></path><g id="node_text52" fill="#ffffff"><text id="kity_text_266" text-rendering="inherit" font-size="14" dy=".8em" y="2609.4999794835394" x="354.49999368570076">ecall可以产生一个Exception：environment-call-From-X-mode，看起来可以利用这个来完成system_call</text></g></g><g id="minder_node54"><path id="kity_path_551" fill="rgba(0, 0, 0, .25)" stroke="none" d="M208.4999955876309,2786.499976961721h64a5,5,0,0,1,5,5v18a5,5,0,0,1,-5,5h-64a5,5,0,0,1,-5,-5v-18a5,5,0,0,1,5,-5z" display="none"></path><g id="node_expander59" style="cursor: pointer;"><path id="kity_path_532" fill="white" stroke="gray" d="M209.49999581304485,2795.499976961721A6,6,0,1,1,197.49999581304485,2795.499976961721A6,6,0,1,1,209.49999581304485,2795.499976961721"></path><path id="kity_path_533" fill="none" stroke="gray" d="M198.99999581304485,2795.499976961721L207.99999581304485,2795.499976961721"></path></g><path id="node_outline60" fill="black" stroke="none" d="M209.4999955876309,2778.499976961721h78v34h-78z" stroke-width="1"></path><g id="node_text60" fill="#ffffff"><text id="kity_text_282" text-rendering="inherit" font-size="14" dy=".8em" y="2788.499976961721" x="219.4999955876309">其他指令</text></g></g><g id="minder_node55"><g id="node_expander54" style="cursor: pointer;"><path id="kity_path_517" fill="white" stroke="gray" d="M327.499994150617,2711.4999781451443A6,6,0,1,1,315.499994150617,2711.4999781451443A6,6,0,1,1,327.499994150617,2711.4999781451443"></path><path id="kity_path_518" fill="none" stroke="gray" d="M316.999994150617,2711.4999781451443L325.999994150617,2711.4999781451443"></path></g><path id="node_outline55" fill="black" stroke="none" d="M327.49999392520306,2694.4999781451443h91v34h-91z"></path><g id="node_text55" fill="#ffffff"><text id="kity_text_272" text-rendering="inherit" font-size="14" dy=".8em" y="2704.4999781451443" x="337.49999392520306">mret，sret</text></g></g><g id="minder_node56"><g id="node_expander53" style="cursor: pointer;" display="none"><path id="kity_path_514" fill="white" stroke="gray" d="M458.49999230504034,2711.4999781451443A6,6,0,1,1,446.49999230504034,2711.4999781451443A6,6,0,1,1,458.49999230504034,2711.4999781451443"></path><path id="kity_path_515" fill="none" stroke="gray"></path></g><path id="node_outline54" fill="black" stroke="none" d="M458.4999920796264,2663.4999781451443h542v97h-542z"></path><g id="node_text54" fill="#ffffff"><text id="kity_text_270" text-rendering="inherit" font-size="14" dy=".8em" y="2672.9999781451443" x="468.4999920796264">从异常处理函数中返回。</text><text id="kity_text_699" text-rendering="inherit" font-size="14" dy=".8em" y="2693.9999781451443" x="468.4999920796264">mret 将 PC 设置为 mepc，通过将 mstatus 的 MPIE 域复制到</text><text id="kity_text_700" text-rendering="inherit" font-size="14" dy=".8em" y="2714.9999781451443" x="468.4999920796264">MIE 来恢复之前的中断使能设置，并将权限模式设置为 mstatus 的 MPP 域中的值。</text><text id="kity_text_701" text-rendering="inherit" font-size="14" dy=".8em" y="2735.9999781451443" x="468.4999920796264">sret同理</text></g></g><g id="minder_node57"><g id="node_expander56" style="cursor: pointer;"><path id="kity_path_523" fill="white" stroke="gray" d="M327.499994150617,2806.499976806749A6,6,0,1,1,315.499994150617,2806.499976806749A6,6,0,1,1,327.499994150617,2806.499976806749"></path><path id="kity_path_524" fill="none" stroke="gray" d="M316.999994150617,2806.499976806749L325.999994150617,2806.499976806749"></path></g><path id="node_outline57" fill="black" stroke="none" d="M327.49999392520306,2789.499976806749h40v34h-40z"></path><g id="node_text57" fill="#ffffff"><text id="kity_text_276" text-rendering="inherit" font-size="14" dy=".8em" y="2799.499976806749" x="337.49999392520306">wfi</text></g></g><g id="minder_node58"><g id="node_expander55" style="cursor: pointer;" display="none"><path id="kity_path_520" fill="white" stroke="gray" d="M407.4999930235473,2806.499976806749A6,6,0,1,1,395.4999930235473,2806.499976806749A6,6,0,1,1,407.4999930235473,2806.499976806749"></path><path id="kity_path_521" fill="none" stroke="gray"></path></g><path id="node_outline56" fill="black" stroke="none" d="M407.49999279813335,2789.499976806749h151v34h-151z"></path><g id="node_text56" fill="#ffffff"><text id="kity_text_274" text-rendering="inherit" font-size="14" dy=".8em" y="2799.499976806749" x="417.49999279813335">wait for interuption</text></g></g><g id="minder_node59"><g id="node_expander58" style="cursor: pointer;"><path id="kity_path_529" fill="white" stroke="gray" d="M327.499994150617,2880.4999757642095A6,6,0,1,1,315.499994150617,2880.4999757642095A6,6,0,1,1,327.499994150617,2880.4999757642095"></path><path id="kity_path_530" fill="none" stroke="gray" d="M316.999994150617,2880.4999757642095L325.999994150617,2880.4999757642095"></path></g><path id="node_outline59" fill="black" stroke="none" d="M327.49999392520306,2863.4999757642095h112v34h-112z"></path><g id="node_text59" fill="#ffffff"><text id="kity_text_280" text-rendering="inherit" font-size="14" dy=".8em" y="2873.4999757642095" x="337.49999392520306">ecall，ebreak</text></g></g><g id="minder_node60"><g id="node_expander57" style="cursor: pointer;" display="none"><path id="kity_path_526" fill="white" stroke="gray" d="M479.4999920091845,2880.4999757642095A6,6,0,1,1,467.4999920091845,2880.4999757642095A6,6,0,1,1,479.4999920091845,2880.4999757642095"></path><path id="kity_path_527" fill="none" stroke="gray"></path></g><path id="node_outline58" fill="black" stroke="none" d="M479.49999178377055,2863.4999757642095h164v34h-164z"></path><g id="node_text58" fill="#ffffff"><text id="kity_text_278" text-rendering="inherit" font-size="14" dy=".8em" y="2873.4999757642095" x="489.49999178377055">产生Exception，见表1</text></g></g><g id="minder_node66" opacity="1"><g id="node_expander65" style="cursor: pointer;"><path id="kity_path_568" fill="white" stroke="gray" d="M369.49999355890543,767.5000055329386A6,6,0,1,1,357.49999355890543,767.5000055329386A6,6,0,1,1,369.49999355890543,767.5000055329386"></path><path id="kity_path_569" fill="none" stroke="gray" d="M358.99999355890543,767.5000055329386L367.99999355890543,767.5000055329386"></path></g><path id="node_outline66" fill="black" stroke="none" d="M369.4999933334915,750.5000055329386h78v34h-78z"></path><g id="node_text66" fill="#ffffff"><text id="kity_text_565" text-rendering="inherit" font-size="14" dy=".8em" y="760.5000055329386" x="379.4999933334915">处理流程</text></g></g><g id="minder_node74"><g id="node_expander73" style="cursor: pointer;" display="none"><path id="kity_path_637" fill="white" stroke="gray" d="M487.4999905960126,640.000007329206A6,6,0,1,1,475.4999905960126,640.000007329206A6,6,0,1,1,487.4999905960126,640.000007329206"></path><path id="kity_path_638" fill="none" stroke="gray"></path></g><path id="node_outline74" fill="black" stroke="none" d="M487.49999138929616,612.5000073362502h723v55h-723z"></path><g id="node_text74" fill="#ffffff"><text id="kity_text_634" text-rendering="inherit" font-size="14" dy=".8em" y="622.0000073362502" x="517.4999913892962">异常指令的 PC 被保存在 mepc 中，PC 被设置为 mtvec。</text><text id="kity_text_639" text-rendering="inherit" font-size="14" dy=".8em" y="643.0000073362502" x="517.4999913892962">对于Exception，mepc指向导致Trap的指令；对于Interruption，mepc指向中断处理后应该恢复执行的位置。</text></g><g id="node_priority1"><path id="kity_path_667" fill="#840023" stroke="none" d="M497.9999920975077,643.0000076868339c0,3.866,3.134,7,7,7h6c3.866,0,7,-3.134,7,-7V637.0000076868339H497.9999920975077V643.0000076868339z"></path><path id="kity_path_668" fill="#FF1200" stroke="none" d="M517.9999920975076,640.0000076868339c0,3.866,-3.134,7,-7,7H504.9999920975077c-3.866,0,-7,-3.134,-7,-7V637.0000076868339c0,-3.866,3.134,-7,7,-7h6c3.866,0,7,3.134,7,7V640.0000076868339z" opacity="0.8"></path><text id="kity_text_669" text-rendering="geometricPrecision" x="506.9999921045519" y="639.500007693878" text-anchor="middle" font-style="italic" font-size="12" fill="white" dy="5">1</text></g></g><g id="minder_node75"><g id="node_expander74" style="cursor: pointer;" display="none"><path id="kity_path_646" fill="white" stroke="gray" d="M487.4999905960126,727.5000060964735A6,6,0,1,1,475.4999905960126,727.5000060964735A6,6,0,1,1,487.4999905960126,727.5000060964735"></path><path id="kity_path_647" fill="none" stroke="gray"></path></g><path id="node_outline75" fill="black" stroke="none" d="M487.49999138929616,707.5000060964735h618v40h-618z"></path><g id="node_text75" fill="#ffffff"><text id="kity_text_643" text-rendering="inherit" font-size="14" dy=".8em" y="720.5000060964735" x="517.4999913892962">根据异常来源设置 mcause，并将 mtval 设置为出错的地址或者其它适用于特定异常的信息字</text></g><g id="node_priority2"><path id="kity_path_672" fill="#01467F" stroke="none" d="M497.9999920975077,731.0000064470572c0,3.866,3.134,7,7,7h6c3.866,0,7,-3.134,7,-7V725.0000064470572H497.9999920975077V731.0000064470572z"></path><path id="kity_path_673" fill="#0074FF" stroke="none" d="M517.9999920975076,728.0000064470572c0,3.866,-3.134,7,-7,7H504.9999920975077c-3.866,0,-7,-3.134,-7,-7V725.0000064470572c0,-3.866,3.134,-7,7,-7h6c3.866,0,7,3.134,7,7V728.0000064470572z" opacity="0.8"></path><text id="kity_text_674" text-rendering="geometricPrecision" x="506.9999921045519" y="727.5000064541014" text-anchor="middle" font-style="italic" font-size="12" fill="white" dy="5">2</text></g></g><g id="minder_node76"><g id="node_expander75" style="cursor: pointer;" display="none"><path id="kity_path_654" fill="white" stroke="gray" d="M487.4999905960126,807.5000049694038A6,6,0,1,1,475.4999905960126,807.5000049694038A6,6,0,1,1,487.4999905960126,807.5000049694038"></path><path id="kity_path_655" fill="none" stroke="gray"></path></g><path id="node_outline76" fill="black" stroke="none" d="M487.49999138929616,787.5000049694038h663v40h-663z"></path><g id="node_text76" fill="#ffffff"><text id="kity_text_651" text-rendering="inherit" font-size="14" dy=".8em" y="800.5000049694038" x="517.4999913892962">把控制状态寄存器 mstatus 中的 MIE 位置零以禁用Interrupt，并把先前的 MIE 值保留到 MPIE 中。</text></g><g id="node_priority3"><path id="kity_path_677" fill="#006300" stroke="none" d="M497.9999920975077,811.0000053199875c0,3.866,3.134,7,7,7h6c3.866,0,7,-3.134,7,-7V805.0000053199875H497.9999920975077V811.0000053199875z"></path><path id="kity_path_678" fill="#00AF00" stroke="none" d="M517.9999920975076,808.0000053199875c0,3.866,-3.134,7,-7,7H504.9999920975077c-3.866,0,-7,-3.134,-7,-7V805.0000053199875c0,-3.866,3.134,-7,7,-7h6c3.866,0,7,3.134,7,7V808.0000053199875z" opacity="0.8"></path><text id="kity_text_679" text-rendering="geometricPrecision" x="506.9999921045519" y="807.5000053270317" text-anchor="middle" font-style="italic" font-size="12" fill="white" dy="5">3</text></g></g><g id="minder_node77"><g id="node_expander76" style="cursor: pointer;" display="none"><path id="kity_path_662" fill="white" stroke="gray" d="M487.4999905960126,895.0000037366713A6,6,0,1,1,475.4999905960126,895.0000037366713A6,6,0,1,1,487.4999905960126,895.0000037366713"></path><path id="kity_path_663" fill="none" stroke="gray"></path></g><path id="node_outline77" fill="black" stroke="none" d="M487.49999138929616,867.5000037437154h547v55h-547z"></path><g id="node_text77" fill="#ffffff"><text id="kity_text_659" text-rendering="inherit" font-size="14" dy=".8em" y="877.0000037437154" x="517.4999913892962">发生Trap之前的权限模式保留在 mstatus 的 MPP 域中，再把权限模式更改为M。</text><text id="kity_text_664" text-rendering="inherit" font-size="14" dy=".8em" y="898.0000037437154" x="517.4999913892962">如果处理器仅实现 M 模式，则有效地跳过这个步骤）。</text></g><g id="node_priority4"><path id="kity_path_682" fill="#B25000" stroke="none" d="M497.9999920975077,898.0000040942991c0,3.866,3.134,7,7,7h6c3.866,0,7,-3.134,7,-7V892.0000040942991H497.9999920975077V898.0000040942991z"></path><path id="kity_path_683" fill="#FF962E" stroke="none" d="M517.9999920975076,895.0000040942991c0,3.866,-3.134,7,-7,7H504.9999920975077c-3.866,0,-7,-3.134,-7,-7V892.0000040942991c0,-3.866,3.134,-7,7,-7h6c3.866,0,7,3.134,7,7V895.0000040942991z" opacity="0.8"></path><text id="kity_text_684" text-rendering="geometricPrecision" x="506.9999921045519" y="894.5000041013433" text-anchor="middle" font-style="italic" font-size="12" fill="white" dy="5">4</text></g></g><g id="kity_g_12" display="none"><path id="kity_path_13" fill="none" stroke="yellow" d="M485.4999982503331,1229.499995347046h47v34h-47z" stroke-width="2"></path></g><g id="minder_node34"><g id="node_expander29" style="cursor: pointer;" display="none"><path id="kity_path_442" fill="white" stroke="gray" d="M756.4999881067056,1539.9999946496716A6,6,0,1,1,744.4999881067056,1539.9999946496716A6,6,0,1,1,756.4999881067056,1539.9999946496716"></path><path id="kity_path_443" fill="none" stroke="gray"></path></g><path id="node_outline30" fill="black" stroke="none" d="M756.4999878812916,1491.499994656716h498v97h-498z"></path><g id="node_text30" fill="#ffffff"><text id="kity_text_216" text-rendering="inherit" font-size="14" dy=".8em" y="1500.999994656716" x="766.4999878812916">Global interrupt-enable bits</text><text id="kity_text_217" text-rendering="inherit" font-size="14" dy=".8em" y="1521.999994656716" x="766.4999878812916">运行在mode x，如果xIE=1，可以Interrupt</text><text id="kity_text_218" text-rendering="inherit" font-size="14" dy=".8em" y="1542.999994656716" x="766.4999878812916">Interrupts for lower-privilege modes, w&lt;x, are always globally disabled.</text><text id="kity_text_219" text-rendering="inherit" font-size="14" dy=".8em" y="1563.999994656716" x="766.4999878812916">Interrupts for higher-privilege modes, y&gt;x, are always globally enabled&#xa0;</text></g></g><g id="minder_node33"><g id="node_expander30" style="cursor: pointer;"><path id="kity_path_445" fill="white" stroke="gray" d="M600.4999903044916,1539.499994656716A6,6,0,1,1,588.4999903044916,1539.499994656716A6,6,0,1,1,600.4999903044916,1539.499994656716"></path><path id="kity_path_446" fill="none" stroke="gray" d="M589.9999903044916,1539.499994656716L598.9999903044916,1539.499994656716"></path></g><path id="node_outline31" fill="black" stroke="none" d="M600.4999900790776,1522.499994656716h116v34h-116z"></path><g id="node_text31" fill="#ffffff"><text id="kity_text_221" text-rendering="inherit" font-size="14" dy=".8em" y="1532.499994656716" x="610.4999900790776">MIE，SIE，UIE</text></g></g><g id="minder_node36"><g id="node_expander31" style="cursor: pointer;" display="none"><path id="kity_path_448" fill="white" stroke="gray" d="M731.4999884589149,1655.9999930154206A6,6,0,1,1,719.4999884589149,1655.9999930154206A6,6,0,1,1,731.4999884589149,1655.9999930154206"></path><path id="kity_path_449" fill="none" stroke="gray"></path></g><path id="node_outline32" fill="black" stroke="none" d="M731.499988233501,1628.4999930224649h635v55h-635z"></path><g id="node_text32" fill="#ffffff"><text id="kity_text_223" text-rendering="inherit" font-size="14" dy=".8em" y="1637.9999930224649" x="741.499988233501">xPP holds the previous privilege mode,The xPP fields can only hold privilege modes up to x,</text><text id="kity_text_224" text-rendering="inherit" font-size="14" dy=".8em" y="1658.9999930224649" x="741.499988233501">也就意味着mret返回到mode MPP , sret返回到mode SPP</text></g></g><g id="minder_node35"><g id="node_expander32" style="cursor: pointer;"><path id="kity_path_451" fill="white" stroke="gray" d="M600.4999903044916,1655.4999930224649A6,6,0,1,1,588.4999903044916,1655.4999930224649A6,6,0,1,1,600.4999903044916,1655.4999930224649"></path><path id="kity_path_452" fill="none" stroke="gray" d="M589.9999903044916,1655.4999930224649L598.9999903044916,1655.4999930224649"></path></g><path id="node_outline33" fill="black" stroke="none" d="M600.4999900790776,1638.4999930224649h91v34h-91z"></path><g id="node_text33" fill="#ffffff"><text id="kity_text_226" text-rendering="inherit" font-size="14" dy=".8em" y="1648.4999930224649" x="610.4999900790776">SPP，MPP</text></g></g><g id="minder_node38"><g id="node_expander33" style="cursor: pointer;" display="none"><path id="kity_path_454" fill="white" stroke="gray" d="M782.499987740408,1750.9999916770253A6,6,0,1,1,770.499987740408,1750.9999916770253A6,6,0,1,1,782.499987740408,1750.9999916770253"></path><path id="kity_path_455" fill="none" stroke="gray"></path></g><path id="node_outline34" fill="black" stroke="none" d="M782.499987514994,1723.4999916840695h606v55h-606z"></path><g id="node_text34" fill="#ffffff"><text id="kity_text_228" text-rendering="inherit" font-size="14" dy=".8em" y="1732.9999916840695" x="792.499987514994">xPIE holds the value of the interrupt-enable bit active prior to the trap,&#xa0;</text><text id="kity_text_229" text-rendering="inherit" font-size="14" dy=".8em" y="1753.9999916840695" x="792.499987514994">当产生中断的时候，硬件将原先xIE的值放到xPIE，然后将xIE置0。ret指令会把xPIE再写回到xIE</text></g></g><g id="minder_node37"><g id="node_expander34" style="cursor: pointer;"><path id="kity_path_457" fill="white" stroke="gray" d="M600.4999903044916,1750.4999916840695A6,6,0,1,1,588.4999903044916,1750.4999916840695A6,6,0,1,1,600.4999903044916,1750.4999916840695"></path><path id="kity_path_458" fill="none" stroke="gray" d="M589.9999903044916,1750.4999916840695L598.9999903044916,1750.4999916840695"></path></g><path id="node_outline35" fill="black" stroke="none" d="M600.4999900790776,1733.4999916840695h142v34h-142z"></path><g id="node_text35" fill="#ffffff"><text id="kity_text_231" text-rendering="inherit" font-size="14" dy=".8em" y="1743.4999916840695" x="610.4999900790776">SPIE，MPIE，UPIE</text></g></g><g id="minder_node40"><g id="node_expander35" style="cursor: pointer;" display="none"><path id="kity_path_460" fill="white" stroke="gray" d="M715.4999886843289,1835.4999904865579A6,6,0,1,1,703.4999886843289,1835.4999904865579A6,6,0,1,1,715.4999886843289,1835.4999904865579"></path><path id="kity_path_461" fill="none" stroke="gray"></path></g><path id="node_outline36" fill="black" stroke="none" d="M715.4999884589149,1818.4999904865579h378v34h-378z"></path><g id="node_text36" fill="#ffffff"><text id="kity_text_233" text-rendering="inherit" font-size="14" dy=".8em" y="1828.4999904865579" x="725.4999884589149">控制x mode下的XLEN，也意味着riscv32不存在这个东西</text></g></g><g id="minder_node39"><g id="node_expander36" style="cursor: pointer;"><path id="kity_path_463" fill="white" stroke="gray" d="M600.4999903044916,1835.4999904865579A6,6,0,1,1,588.4999903044916,1835.4999904865579A6,6,0,1,1,600.4999903044916,1835.4999904865579"></path><path id="kity_path_464" fill="none" stroke="gray" d="M589.9999903044916,1835.4999904865579L598.9999903044916,1835.4999904865579"></path></g><path id="node_outline37" fill="black" stroke="none" d="M600.4999900790776,1818.4999904865579h75v34h-75z"></path><g id="node_text37" fill="#ffffff"><text id="kity_text_235" text-rendering="inherit" font-size="14" dy=".8em" y="1828.4999904865579" x="610.4999900790776">SXL,UXL</text></g></g><g id="minder_node41"><g id="node_expander37" style="cursor: pointer;" display="none"><path id="kity_path_466" fill="white" stroke="gray" d="M600.4999903044916,1909.4999894440184A6,6,0,1,1,588.4999903044916,1909.4999894440184A6,6,0,1,1,600.4999903044916,1909.4999894440184"></path><path id="kity_path_467" fill="none" stroke="gray"></path></g><path id="node_outline38" fill="black" stroke="none" d="M600.4999900790776,1892.4999894440184h31v34h-31z"></path><g id="node_text38" fill="#ffffff"><text id="kity_text_237" text-rendering="inherit" font-size="14" dy=".8em" y="1902.4999894440184" x="610.4999900790776">...</text></g></g></g></g></svg>